<svg xmlns="http://www.w3.org/2000/svg" viewBox="1397 521.5 26 24.593">
  <defs>
    <style>
      .cls-1 {
        fill: #fff;
      }
    </style>
  </defs>
  <path id="chat1" class="cls-1" d="M26.261,4.737H6.511A3.125,3.125,0,0,0,3.386,7.862V21.187a3.126,3.126,0,0,0,3.125,3.125h.948L7.423,29.33l7.263-5.018H26.261a3.126,3.126,0,0,0,3.125-3.125V7.862A3.124,3.124,0,0,0,26.261,4.737ZM11.091,15.773a1.563,1.563,0,1,1,1.563-1.563A1.562,1.562,0,0,1,11.091,15.773Zm5.3,0a1.563,1.563,0,1,1,1.563-1.563A1.563,1.563,0,0,1,16.386,15.773Zm5.3.173a1.563,1.563,0,1,1,1.563-1.563A1.562,1.562,0,0,1,21.682,15.946Z" transform="translate(1393.614 516.763)"/>
</svg>
