<svg xmlns="http://www.w3.org/2000/svg" viewBox="1397 590.917 26 25.62">
  <defs>
    <style>
      .cls-1 {
        fill: #fff;
      }
    </style>
  </defs>
  <path id="moneypig" class="cls-1" d="M19.616,7.557a3.67,3.67,0,1,1-3.671-3.67A3.671,3.671,0,0,1,19.616,7.557Zm9.822,9.92a.262.262,0,0,1-.37-.018,1.42,1.42,0,0,0-.471-.223,1.272,1.272,0,0,1-.225.489.663.663,0,0,1-.526.283.651.651,0,0,1-.09-.006.812.812,0,0,1-.717-.557.756.756,0,0,1,.244-.775,1.043,1.043,0,0,1,.771-.1.341.341,0,0,0-.292-.216,2.387,2.387,0,0,0-1.339.393,8.328,8.328,0,0,1,.224,1.917,9.128,9.128,0,0,1-4.8,7.828c0,.017.008.032.008.049v2.29a.624.624,0,0,1-.55.678h-2a.623.623,0,0,1-.55-.678V27.7a11.781,11.781,0,0,1-5.736-.071v1.143a.625.625,0,0,1-.55.678h-2a.625.625,0,0,1-.55-.678v-2.29a.767.767,0,0,1,.027-.168A10.087,10.087,0,0,1,7.2,23.822H4.625a1.1,1.1,0,0,1-1.1-1.1V18.04a1.1,1.1,0,0,1,1.1-1.1h1a8.749,8.749,0,0,1,1.707-3.611l-1.306-1.75a2.556,2.556,0,0,1,2.888.167,10.9,10.9,0,0,1,2.535-1.509,5.27,5.27,0,0,0,.957,1.175c-.267.105-.531.22-.785.349a.524.524,0,0,0,.475.934,8.348,8.348,0,0,1,1.341-.538,5.214,5.214,0,0,0,5.081-.037,8.3,8.3,0,0,1,1.655.671.524.524,0,1,0,.5-.921,9.429,9.429,0,0,0-1.124-.513,5.277,5.277,0,0,0,.939-1.189,9.8,9.8,0,0,1,5.79,6.066,2.784,2.784,0,0,1,1.552-.4.869.869,0,0,1,.719.554,1.219,1.219,0,0,1,.082.315,2.263,2.263,0,0,1,.829.408A.264.264,0,0,1,29.438,17.478Zm-18.856-.584A1.178,1.178,0,1,0,9.4,18.072,1.178,1.178,0,0,0,10.583,16.894Zm17.507.206a1.839,1.839,0,0,0-.345-.042.331.331,0,0,0-.138.021.233.233,0,0,0-.063.224c.035.125.2.166.29.18a.176.176,0,0,0,.127-.08A.8.8,0,0,0,28.089,17.1Z" transform="translate(1393.476 587.03)"/>
</svg>
