<svg xmlns="http://www.w3.org/2000/svg" viewBox="1397 380.832 26 26.001">
  <defs>
    <style>
      .cls-1 {
        fill: #fff;
      }
    </style>
  </defs>
  <path id="bakelitedisk" class="cls-1" d="M16.4,11.969A4.432,4.432,0,1,0,20.833,16.4,4.437,4.437,0,0,0,16.4,11.969Zm0,5.851A1.419,1.419,0,1,1,17.819,16.4,1.419,1.419,0,0,1,16.4,17.819ZM16.4,3.4a13,13,0,1,0,13,13A13,13,0,0,0,16.4,3.4ZM13.528,27.65a.522.522,0,0,1-.5.37A.532.532,0,0,1,12.878,28a12.108,12.108,0,0,1-8.035-7.949.521.521,0,1,1,.994-.314A11.063,11.063,0,0,0,13.181,27,.522.522,0,0,1,13.528,27.65Zm.548-1.876a.52.52,0,0,1-.65.346A10.156,10.156,0,0,1,6.7,19.452.521.521,0,1,1,7.7,19.14a9.115,9.115,0,0,0,6.031,5.984A.521.521,0,0,1,14.077,25.774Zm.562-1.938a.521.521,0,0,1-.5.367.534.534,0,0,1-.155-.023A8.15,8.15,0,0,1,8.649,18.9a.521.521,0,1,1,.992-.319,7.106,7.106,0,0,0,4.655,4.6A.521.521,0,0,1,14.638,23.836ZM16.4,22.4a6,6,0,1,1,6-6A6,6,0,0,1,16.4,22.4Zm7.452-7.688a.53.53,0,0,1-.15.022.52.52,0,0,1-.5-.372,7.078,7.078,0,0,0-4.772-4.765.521.521,0,1,1,.3-1A8.117,8.117,0,0,1,24.2,14.059.522.522,0,0,1,23.853,14.708Zm1.936-.576a.521.521,0,0,1-.648-.35,9.082,9.082,0,0,0-6.172-6.136.521.521,0,0,1,.293-1,10.122,10.122,0,0,1,6.878,6.837A.521.521,0,0,1,25.788,14.132Zm1.852-.648a.508.508,0,0,1-.154.023.52.52,0,0,1-.5-.368,11.049,11.049,0,0,0-7.416-7.353.522.522,0,0,1,.3-1,12.094,12.094,0,0,1,8.115,8.046A.521.521,0,0,1,27.64,13.484Z" transform="translate(1393.599 377.432)"/>
</svg>
