<svg xmlns="http://www.w3.org/2000/svg" viewBox="1398 448.814 23.175 28">
  <defs>
    <style>
      .cls-1 {
        fill: #fff;
      }
    </style>
  </defs>
  <path id="user" class="cls-1" d="M32.045,32.235c0,.155-.016.307-.022.46H8.893c-.007-.154-.023-.305-.023-.46A11.516,11.516,0,0,1,15.555,21.8l0,0c.343-.16.695-.3,1.055-.429.036-.012.071-.027.107-.038.178-.062.356-.118.536-.169.231-.067.465-.127.7-.179q.183-.04.366-.073c.114-.022.228-.043.344-.062h0c.18-.028.36-.054.543-.074.061-.007.122-.011.183-.016l.077-.006c.049,0,.1-.009.148-.012.278-.02.558-.035.84-.035s.531.012.794.03l.1.009.185.015.151.012c.139.015.277.036.414.056h0q.249.036.493.083c.108.02.215.039.321.062.248.054.49.118.731.187.158.045.315.092.471.144.2.065.389.136.58.21s.365.149.545.231l0,0A11.519,11.519,0,0,1,32.045,32.235Zm-14.3-14.16c.111.046.226.083.338.124s.2.078.3.109a7.011,7.011,0,0,0,2.08.316h.007a7.079,7.079,0,0,0,.712-.036c.1-.011.2-.031.308-.046.128-.018.258-.033.384-.058.1-.021.194-.05.292-.074.126-.031.253-.059.377-.1.084-.025.162-.059.244-.088.134-.046.27-.09.4-.144.062-.025.118-.058.178-.085.148-.066.3-.133.437-.21.034-.017.065-.039.1-.058.165-.092.329-.188.486-.294l.012-.008c.122-.083.233-.178.35-.268.04-.031.084-.059.124-.091.01-.008.02-.015.029-.022l.026-.024a6.927,6.927,0,0,0,2.546-5.352v-.009A7,7,0,0,0,13.5,11.22c-.01.146-.022.29-.022.438A6.962,6.962,0,0,0,17.748,18.075Z" transform="translate(1389.13 444.119)"/>
</svg>
